<?xml version="1.0" encoding="utf-8"?>
<!-- Generator: Adobe Illustrator 27.0.0, SVG Export Plug-In . SVG Version: 6.00 Build 0)  -->
<svg version="1.1" id="Layer_1" xmlns="http://www.w3.org/2000/svg" xmlns:xlink="http://www.w3.org/1999/xlink" x="0px" y="0px"
	 viewBox="0 0 1920 1080" style="enable-background:new 0 0 1920 1080;" xml:space="preserve">
<style type="text/css">
	.st0{fill:none;stroke:#292D60;stroke-width:48;}
	.st1{fill:none;}
	.st2{display:none;}
</style>
<path class="st0" d="M186.35,610.83c34,22,128.45,38.09,251.5,27.5c151-13,342.5-120,406-155c75.5-41.61,214.12-72.5,255-27
	c31,34.5-182,135.07-89,182c54.5,27.5,293.69-25.52,439-51c105.5-18.5,248,18.5,280.5,51"/>
<path id="SVGID_x5F_1_x5F_" class="st1" d="M186.35,610.83c34,22,128.45,38.09,251.5,27.5c151-13,342.5-120,406-155
	c75.5-41.61,214.12-72.5,255-27c31,34.5-182,135.07-89,182c54.5,27.5,293.69-25.52,439-51c105.5-18.5,248,18.5,280.5,51"/>
<text class="st2"><textPath  xlink:href="#SVGID_x5F_1_x5F_" startOffset="3.5645%"  style="display:inline;">
<tspan  style="fill:#FFFFFF; font-family:'Pretendard-Light-KSCpc-EUC-H'; font-size:22px; letter-spacing:20;">In our ever-changing society, I&apos;m gathering my own droplets to create impactful waves, like those shaping rocks and gifting journeys to sea creatures, leaving their mark on the ecosystem.</tspan></textPath>
</text>
</svg>
